<?xml version="1.0" encoding="utf-8"?>
<!-- Generator: Adobe Illustrator 15.1.0, SVG Export Plug-In . SVG Version: 6.00 Build 0)  -->
<!DOCTYPE svg PUBLIC "-//W3C//DTD SVG 1.1//EN" "http://www.w3.org/Graphics/SVG/1.1/DTD/svg11.dtd">
<svg version="1.1" id="_x30_4_bold" xmlns="http://www.w3.org/2000/svg" xmlns:xlink="http://www.w3.org/1999/xlink" x="0px"
	 y="0px" width="68.638px" height="57.274px" viewBox="0 0 68.638 57.274" enable-background="new 0 0 68.638 57.274"
	 xml:space="preserve">
<g id="_x30_9_3_">
	<path fill="#E7315A" d="M60.149,8.149c-1.001-1.001-2.624-1-3.624,0.001c-1.001,1.001-1,2.623,0.001,3.624
		c4.505,4.502,6.985,10.489,6.985,16.859c0,6.371-2.48,12.36-6.986,16.865c-1,1.001-1,2.624,0,3.626
		c0.501,0.499,1.157,0.75,1.813,0.75c0.656,0,1.313-0.251,1.813-0.75c5.473-5.474,8.487-12.751,8.487-20.491
		C68.638,20.895,65.623,13.618,60.149,8.149z"/>
	<path fill="#E7315A" d="M51.58,15.99c-1.001-1-2.623-1-3.625,0.001c-1,1-1,2.623,0.001,3.624c2.409,2.408,3.735,5.613,3.735,9.021
		s-1.326,6.611-3.735,9.02c-1.001,1.001-1.001,2.624-0.001,3.625c0.501,0.5,1.156,0.751,1.813,0.751s1.312-0.251,1.813-0.75
		c3.377-3.377,5.237-7.867,5.237-12.646S54.957,19.368,51.58,15.99z"/>
	<path fill="#E7315A" d="M38.106,0.292c-0.846-0.442-1.867-0.378-2.649,0.164l-21.3,14.784H2.563C1.146,15.24,0,16.388,0,17.803
		v21.668c0,1.415,1.146,2.563,2.563,2.563h11.595l21.3,14.784c0.437,0.303,0.948,0.457,1.461,0.457c0.406,0,0.814-0.097,1.188-0.292
		c0.845-0.442,1.374-1.316,1.374-2.271V2.563C39.48,1.608,38.951,0.733,38.106,0.292z M34.355,49.813L16.421,37.364
		c-0.429-0.297-0.938-0.456-1.461-0.456H5.125V20.365h9.835c0.522,0,1.032-0.159,1.461-0.456L34.355,7.46V49.813z"/>
</g>
<rect x="10.616" y="17.37" fill="#E7315A" width="5.25" height="23.75"/>
</svg>
